<svg clip-rule="evenodd" fill-rule="evenodd" stroke-linejoin="round" stroke-miterlimit="1.41421" viewBox="0 0 100 100" xmlns="http://www.w3.org/2000/svg"><path d="m50 5.995c-18.356 0-35.25 2.25-35.25 2.25v56.255c0 7.488 2.992 12.87 8.624 16.12l26.626 15.375 26.626-15.375c5.632-3.25 8.624-8.635 8.624-16.12v-56.255s-16.895-2.25-35.25-2.25zm33 58.505-.002.19v.185c0 .54-.024.817-.059 1.322-.408 5.666-2.904 9.857-7.438 12.474l-25.501 14.726-25.501-14.725c-4.595-2.652-7.038-6.733-7.439-12.441l-.007-.005c-.034-.523-.058-.799-.058-1.351v-8.873l.005.003v-6.466c-.003-.128-.005-.257-.005-.385v-8.873l.005.003v-30.047s16-1.992 33-1.992 33 1.992 33 1.992zm-63.515 3.131c.653 4.102 2.677 7.094 6.139 9.092l24.376 14.076 24.376-14.076c3.463-1.999 5.488-4.992 6.139-9.096l-30.515 17.619zm-.235-15.858v5.531l30.75 17.751 30.75-17.755v-5.531l-30.75 17.755zm0-39.524v29.333l30.75 17.751 30.75-17.754v-29.33s-15.25-1.754-30.75-1.754c-16 0-30.75 1.754-30.75 1.754zm11.657 5.746h-4.407v18.249h4.441v-10.1h.083l6.405 10.1h4.371v-14.388h9.874c1.828.001 2.716.817 2.716 2.496 0 1.539-.918 2.458-2.458 2.458h-2.791v-2.877h-4.674v12.311h4.674v-5.46h2.266l4.428 5.46h5.781l-5.459-6.558c1.788-1.09 2.761-3.02 2.761-5.445 0-3.894-2.651-6.246-6.912-6.246h-14.756v10.136h-.099zm44.343 18.249v-4.048h-9.289v-14.201h-4.711v14.747l2.915 3.502z" fill="#00cf5d"/></svg>